<svg id="visual" viewBox="0 0 540 960" width="540" height="960" xmlns="http://www.w3.org/2000/svg" xmlns:xlink="http://www.w3.org/1999/xlink" version="1.1"><rect width="540" height="960" fill="#755833"></rect><g><g transform="translate(313 203)"><path d="M123.3 -99.5C139.4 -78.1 118.1 -28 98.5 8.3C78.9 44.5 61 67 38.7 76C16.4 85.1 -10.2 80.7 -31.9 69.1C-53.6 57.6 -70.3 38.7 -76.1 16.5C-81.8 -5.7 -76.5 -31.2 -62 -52.3C-47.5 -73.4 -23.7 -89.9 14.9 -101.8C53.6 -113.7 107.2 -121 123.3 -99.5Z" fill="#E7A105"></path></g><g transform="translate(433 873)"><path d="M85.8 -73.8C106 -43.1 113.5 -7.7 107.4 26.6C101.2 60.9 81.3 94.3 56.1 100C31 105.8 0.5 84 -21 65.3C-42.5 46.6 -55.1 31 -69.9 4.9C-84.7 -21.3 -101.7 -58 -90.4 -86.6C-79.2 -115.3 -39.6 -135.9 -3.4 -133.2C32.8 -130.5 65.6 -104.5 85.8 -73.8Z" fill="#E7A105"></path></g><g transform="translate(5 938)"><path d="M87.4 -66.2C111 -40.1 126.3 -3.9 119.3 27.3C112.2 58.5 82.8 84.6 48.7 101C14.6 117.3 -24.1 123.8 -53.1 110C-82.2 96.1 -101.6 61.9 -99.5 33.5C-97.3 5.2 -73.6 -17.3 -53.4 -42.7C-33.3 -68.1 -16.6 -96.3 7.6 -102.4C31.9 -108.5 63.7 -92.4 87.4 -66.2Z" fill="#E7A105"></path></g><g transform="translate(1 485)"><path d="M102.8 -89.2C122.7 -57 121 -14.9 107.6 16.9C94.3 48.7 69.2 70.2 43.4 78C17.5 85.9 -9.1 80.1 -40.2 70.2C-71.4 60.3 -107 46.4 -119 19.7C-131 -7 -119.4 -46.5 -95.6 -79.5C-71.9 -112.6 -35.9 -139.2 2.8 -141.4C41.5 -143.7 82.9 -121.4 102.8 -89.2Z" fill="#E7A105"></path></g></g></svg>